<mxfile host="app.diagrams.net" modified="2024-03-12T13:59:43.637Z" agent="Mozilla/5.0 (Macintosh; Intel Mac OS X 10_15_7) AppleWebKit/537.36 (KHTML, like Gecko) Chrome/119.0.0.0 Safari/537.36" etag="unEwO7xs_5IK7Zrb49_u" version="24.0.4" type="github" pages="4">
  <diagram name="第k距离" id="CrgDQUyZvMiKQ319q3F9">
    <mxGraphModel dx="1026" dy="651" grid="1" gridSize="10" guides="1" tooltips="1" connect="1" arrows="1" fold="1" page="1" pageScale="1" pageWidth="827" pageHeight="1169" math="0" shadow="0">
      <root>
        <mxCell id="0" />
        <mxCell id="1" parent="0" />
        <mxCell id="eH951Dv6pOF8_fJuHjXv-1" value="" style="ellipse;whiteSpace=wrap;html=1;aspect=fixed;fillColor=none;" parent="1" vertex="1">
          <mxGeometry x="269" y="210" width="270" height="270" as="geometry" />
        </mxCell>
        <mxCell id="eH951Dv6pOF8_fJuHjXv-9" style="rounded=0;orthogonalLoop=1;jettySize=auto;html=1;exitX=0;exitY=0.5;exitDx=0;exitDy=0;entryX=1;entryY=0.5;entryDx=0;entryDy=0;" parent="1" source="eH951Dv6pOF8_fJuHjXv-2" target="eH951Dv6pOF8_fJuHjXv-3" edge="1">
          <mxGeometry relative="1" as="geometry" />
        </mxCell>
        <mxCell id="eH951Dv6pOF8_fJuHjXv-2" value="" style="ellipse;whiteSpace=wrap;html=1;aspect=fixed;strokeColor=default;fillColor=#0f0000;" parent="1" vertex="1">
          <mxGeometry x="399" y="340" width="10" height="10" as="geometry" />
        </mxCell>
        <mxCell id="eH951Dv6pOF8_fJuHjXv-3" value="" style="ellipse;whiteSpace=wrap;html=1;aspect=fixed;strokeColor=default;fillColor=#0f0000;" parent="1" vertex="1">
          <mxGeometry x="264" y="350" width="10" height="10" as="geometry" />
        </mxCell>
        <mxCell id="eH951Dv6pOF8_fJuHjXv-4" value="" style="ellipse;whiteSpace=wrap;html=1;aspect=fixed;strokeColor=default;fillColor=#0f0000;" parent="1" vertex="1">
          <mxGeometry x="340" y="420" width="10" height="10" as="geometry" />
        </mxCell>
        <mxCell id="eH951Dv6pOF8_fJuHjXv-5" value="" style="ellipse;whiteSpace=wrap;html=1;aspect=fixed;strokeColor=default;fillColor=#0f0000;" parent="1" vertex="1">
          <mxGeometry x="460" y="400" width="10" height="10" as="geometry" />
        </mxCell>
        <mxCell id="eH951Dv6pOF8_fJuHjXv-6" value="" style="ellipse;whiteSpace=wrap;html=1;aspect=fixed;strokeColor=default;fillColor=#0f0000;" parent="1" vertex="1">
          <mxGeometry x="389" y="260" width="10" height="10" as="geometry" />
        </mxCell>
        <mxCell id="eH951Dv6pOF8_fJuHjXv-7" value="" style="ellipse;whiteSpace=wrap;html=1;aspect=fixed;strokeColor=default;fillColor=#0f0000;" parent="1" vertex="1">
          <mxGeometry x="490" y="290" width="10" height="10" as="geometry" />
        </mxCell>
        <mxCell id="eH951Dv6pOF8_fJuHjXv-10" value="&lt;font face=&quot;Times New Roman&quot; style=&quot;font-size: 14px;&quot;&gt;p&lt;/font&gt;" style="text;html=1;strokeColor=none;fillColor=none;align=center;verticalAlign=middle;whiteSpace=wrap;rounded=0;" parent="1" vertex="1">
          <mxGeometry x="389" y="350" width="56" height="30" as="geometry" />
        </mxCell>
        <mxCell id="eH951Dv6pOF8_fJuHjXv-11" value="&lt;font style=&quot;font-size: 12px;&quot; face=&quot;Times New Roman&quot;&gt;&lt;b&gt;distance(p)&lt;/b&gt;&lt;/font&gt;" style="text;html=1;strokeColor=none;fillColor=none;align=center;verticalAlign=middle;whiteSpace=wrap;rounded=0;rotation=354;" parent="1" vertex="1">
          <mxGeometry x="300" y="320" width="60" height="30" as="geometry" />
        </mxCell>
      </root>
    </mxGraphModel>
  </diagram>
  <diagram id="spn00y1dLMdYqwzuoKgM" name="可达距离">
    <mxGraphModel dx="1434" dy="738" grid="1" gridSize="10" guides="1" tooltips="1" connect="1" arrows="1" fold="1" page="1" pageScale="1" pageWidth="827" pageHeight="1169" math="0" shadow="0">
      <root>
        <mxCell id="0" />
        <mxCell id="1" parent="0" />
        <mxCell id="-Zb8atuT6FSDs49NhYJg-1" value="" style="ellipse;whiteSpace=wrap;html=1;aspect=fixed;fillColor=none;" vertex="1" parent="1">
          <mxGeometry x="115" y="260" width="270" height="270" as="geometry" />
        </mxCell>
        <mxCell id="-Zb8atuT6FSDs49NhYJg-24" style="rounded=0;orthogonalLoop=1;jettySize=auto;html=1;exitX=1;exitY=0.5;exitDx=0;exitDy=0;entryX=1;entryY=0.5;entryDx=0;entryDy=0;" edge="1" parent="1" source="-Zb8atuT6FSDs49NhYJg-3" target="-Zb8atuT6FSDs49NhYJg-1">
          <mxGeometry relative="1" as="geometry" />
        </mxCell>
        <mxCell id="-Zb8atuT6FSDs49NhYJg-3" value="" style="ellipse;whiteSpace=wrap;html=1;aspect=fixed;strokeColor=default;fillColor=#0f0000;" vertex="1" parent="1">
          <mxGeometry x="245" y="390" width="10" height="10" as="geometry" />
        </mxCell>
        <mxCell id="-Zb8atuT6FSDs49NhYJg-4" value="" style="ellipse;whiteSpace=wrap;html=1;aspect=fixed;strokeColor=default;fillColor=#0f0000;" vertex="1" parent="1">
          <mxGeometry x="110" y="400" width="10" height="10" as="geometry" />
        </mxCell>
        <mxCell id="-Zb8atuT6FSDs49NhYJg-5" value="" style="ellipse;whiteSpace=wrap;html=1;aspect=fixed;strokeColor=default;fillColor=#0f0000;" vertex="1" parent="1">
          <mxGeometry x="186" y="470" width="10" height="10" as="geometry" />
        </mxCell>
        <mxCell id="-Zb8atuT6FSDs49NhYJg-6" value="" style="ellipse;whiteSpace=wrap;html=1;aspect=fixed;strokeColor=default;fillColor=#0f0000;" vertex="1" parent="1">
          <mxGeometry x="306" y="450" width="10" height="10" as="geometry" />
        </mxCell>
        <mxCell id="-Zb8atuT6FSDs49NhYJg-7" value="" style="ellipse;whiteSpace=wrap;html=1;aspect=fixed;strokeColor=default;fillColor=#0f0000;" vertex="1" parent="1">
          <mxGeometry x="235" y="310" width="10" height="10" as="geometry" />
        </mxCell>
        <mxCell id="-Zb8atuT6FSDs49NhYJg-8" value="" style="ellipse;whiteSpace=wrap;html=1;aspect=fixed;strokeColor=default;fillColor=#0f0000;" vertex="1" parent="1">
          <mxGeometry x="336" y="340" width="10" height="10" as="geometry" />
        </mxCell>
        <mxCell id="-Zb8atuT6FSDs49NhYJg-9" value="&lt;font face=&quot;Times New Roman&quot; style=&quot;font-size: 14px;&quot;&gt;p&lt;/font&gt;" style="text;html=1;strokeColor=none;fillColor=none;align=center;verticalAlign=middle;whiteSpace=wrap;rounded=0;" vertex="1" parent="1">
          <mxGeometry x="283" y="399" width="56" height="30" as="geometry" />
        </mxCell>
        <mxCell id="-Zb8atuT6FSDs49NhYJg-11" value="" style="ellipse;whiteSpace=wrap;html=1;aspect=fixed;fillColor=none;" vertex="1" parent="1">
          <mxGeometry x="405" y="170" width="220" height="220" as="geometry" />
        </mxCell>
        <mxCell id="-Zb8atuT6FSDs49NhYJg-27" style="rounded=0;orthogonalLoop=1;jettySize=auto;html=1;exitX=0;exitY=1;exitDx=0;exitDy=0;entryX=1;entryY=0.5;entryDx=0;entryDy=0;" edge="1" parent="1" source="-Zb8atuT6FSDs49NhYJg-13" target="-Zb8atuT6FSDs49NhYJg-21">
          <mxGeometry relative="1" as="geometry" />
        </mxCell>
        <mxCell id="-Zb8atuT6FSDs49NhYJg-13" value="" style="ellipse;whiteSpace=wrap;html=1;aspect=fixed;strokeColor=default;fillColor=#0f0000;" vertex="1" parent="1">
          <mxGeometry x="515" y="275" width="10" height="10" as="geometry" />
        </mxCell>
        <mxCell id="-Zb8atuT6FSDs49NhYJg-14" value="" style="ellipse;whiteSpace=wrap;html=1;aspect=fixed;strokeColor=default;fillColor=#0f0000;" vertex="1" parent="1">
          <mxGeometry x="420" y="210" width="10" height="10" as="geometry" />
        </mxCell>
        <mxCell id="-Zb8atuT6FSDs49NhYJg-15" value="" style="ellipse;whiteSpace=wrap;html=1;aspect=fixed;strokeColor=default;fillColor=#0f0000;" vertex="1" parent="1">
          <mxGeometry x="476" y="380" width="10" height="10" as="geometry" />
        </mxCell>
        <mxCell id="-Zb8atuT6FSDs49NhYJg-16" value="" style="ellipse;whiteSpace=wrap;html=1;aspect=fixed;strokeColor=default;fillColor=#0f0000;" vertex="1" parent="1">
          <mxGeometry x="500" y="330" width="10" height="10" as="geometry" />
        </mxCell>
        <mxCell id="-Zb8atuT6FSDs49NhYJg-17" value="" style="ellipse;whiteSpace=wrap;html=1;aspect=fixed;strokeColor=default;fillColor=#0f0000;" vertex="1" parent="1">
          <mxGeometry x="525" y="220" width="10" height="10" as="geometry" />
        </mxCell>
        <mxCell id="-Zb8atuT6FSDs49NhYJg-18" value="" style="ellipse;whiteSpace=wrap;html=1;aspect=fixed;strokeColor=default;fillColor=#0f0000;" vertex="1" parent="1">
          <mxGeometry x="615" y="310" width="10" height="10" as="geometry" />
        </mxCell>
        <mxCell id="-Zb8atuT6FSDs49NhYJg-19" value="&lt;font face=&quot;Times New Roman&quot;&gt;&lt;span style=&quot;font-size: 11.6667px;&quot;&gt;o&lt;sub&gt;1&lt;/sub&gt;&lt;/span&gt;&lt;/font&gt;" style="text;html=1;strokeColor=none;fillColor=none;align=center;verticalAlign=middle;whiteSpace=wrap;rounded=0;" vertex="1" parent="1">
          <mxGeometry x="525" y="285" width="35" height="25" as="geometry" />
        </mxCell>
        <mxCell id="-Zb8atuT6FSDs49NhYJg-21" value="" style="ellipse;whiteSpace=wrap;html=1;aspect=fixed;strokeColor=default;fillColor=#0f0000;" vertex="1" parent="1">
          <mxGeometry x="306" y="389" width="10" height="10" as="geometry" />
        </mxCell>
        <mxCell id="-Zb8atuT6FSDs49NhYJg-26" value="&lt;font face=&quot;Times New Roman&quot;&gt;&lt;span style=&quot;font-size: 11.6667px;&quot;&gt;o&lt;sub&gt;2&lt;/sub&gt;&lt;/span&gt;&lt;/font&gt;" style="text;html=1;strokeColor=none;fillColor=none;align=center;verticalAlign=middle;whiteSpace=wrap;rounded=0;" vertex="1" parent="1">
          <mxGeometry x="235" y="400" width="35" height="25" as="geometry" />
        </mxCell>
        <mxCell id="-Zb8atuT6FSDs49NhYJg-28" value="" style="ellipse;whiteSpace=wrap;html=1;aspect=fixed;strokeColor=default;fillColor=#0f0000;" vertex="1" parent="1">
          <mxGeometry x="420" y="429" width="10" height="10" as="geometry" />
        </mxCell>
        <mxCell id="-Zb8atuT6FSDs49NhYJg-29" value="" style="ellipse;whiteSpace=wrap;html=1;aspect=fixed;strokeColor=default;fillColor=#0f0000;" vertex="1" parent="1">
          <mxGeometry x="405" y="460" width="10" height="10" as="geometry" />
        </mxCell>
        <mxCell id="-Zb8atuT6FSDs49NhYJg-30" value="" style="ellipse;whiteSpace=wrap;html=1;aspect=fixed;strokeColor=default;fillColor=#0f0000;" vertex="1" parent="1">
          <mxGeometry x="404" y="399" width="10" height="10" as="geometry" />
        </mxCell>
      </root>
    </mxGraphModel>
  </diagram>
  <diagram id="X-kYFsENs2WdgJdChM0X" name="VAE算法流程">
    <mxGraphModel dx="1026" dy="651" grid="1" gridSize="10" guides="1" tooltips="1" connect="1" arrows="1" fold="1" page="1" pageScale="1" pageWidth="827" pageHeight="1169" math="0" shadow="0">
      <root>
        <mxCell id="0" />
        <mxCell id="1" parent="0" />
        <mxCell id="__ya_s2Tggf9Jg9afbsI-2" style="edgeStyle=orthogonalEdgeStyle;rounded=0;orthogonalLoop=1;jettySize=auto;html=1;exitX=1;exitY=0.5;exitDx=0;exitDy=0;entryX=0;entryY=0.5;entryDx=0;entryDy=0;" edge="1" parent="1" source="pcztxO2rEpAHR26Ek-OE-1" target="pcztxO2rEpAHR26Ek-OE-7">
          <mxGeometry relative="1" as="geometry" />
        </mxCell>
        <mxCell id="__ya_s2Tggf9Jg9afbsI-4" style="edgeStyle=orthogonalEdgeStyle;rounded=0;orthogonalLoop=1;jettySize=auto;html=1;exitX=0.5;exitY=1;exitDx=0;exitDy=0;entryX=0.5;entryY=1;entryDx=0;entryDy=0;" edge="1" parent="1" source="pcztxO2rEpAHR26Ek-OE-1" target="pcztxO2rEpAHR26Ek-OE-12">
          <mxGeometry relative="1" as="geometry">
            <Array as="points">
              <mxPoint x="175" y="490" />
              <mxPoint x="705" y="490" />
            </Array>
          </mxGeometry>
        </mxCell>
        <mxCell id="pcztxO2rEpAHR26Ek-OE-1" value="" style="rounded=1;whiteSpace=wrap;html=1;" parent="1" vertex="1">
          <mxGeometry x="70" y="170" width="210" height="280" as="geometry" />
        </mxCell>
        <mxCell id="pcztxO2rEpAHR26Ek-OE-2" value="&lt;font style=&quot;font-size: 16px;&quot;&gt;缺失值填充&lt;/font&gt;" style="rounded=1;whiteSpace=wrap;html=1;" parent="1" vertex="1">
          <mxGeometry x="109" y="240" width="134" height="50" as="geometry" />
        </mxCell>
        <mxCell id="pcztxO2rEpAHR26Ek-OE-3" value="&lt;span style=&quot;font-size: 16px;&quot;&gt;标准化&lt;/span&gt;" style="rounded=1;whiteSpace=wrap;html=1;" parent="1" vertex="1">
          <mxGeometry x="109" y="310" width="134" height="50" as="geometry" />
        </mxCell>
        <mxCell id="pcztxO2rEpAHR26Ek-OE-4" value="&lt;span style=&quot;font-size: 16px;&quot;&gt;LOF异常检测&lt;/span&gt;" style="rounded=1;whiteSpace=wrap;html=1;" parent="1" vertex="1">
          <mxGeometry x="109" y="380" width="134" height="50" as="geometry" />
        </mxCell>
        <mxCell id="pcztxO2rEpAHR26Ek-OE-5" value="&lt;font style=&quot;font-size: 18px;&quot;&gt;预处理&lt;/font&gt;" style="text;html=1;align=center;verticalAlign=middle;whiteSpace=wrap;rounded=0;" parent="1" vertex="1">
          <mxGeometry x="110" y="180" width="140" height="40" as="geometry" />
        </mxCell>
        <mxCell id="pcztxO2rEpAHR26Ek-OE-18" style="edgeStyle=orthogonalEdgeStyle;rounded=0;orthogonalLoop=1;jettySize=auto;html=1;exitX=1;exitY=0.5;exitDx=0;exitDy=0;" parent="1" source="pcztxO2rEpAHR26Ek-OE-7" target="pcztxO2rEpAHR26Ek-OE-12" edge="1">
          <mxGeometry relative="1" as="geometry" />
        </mxCell>
        <mxCell id="pcztxO2rEpAHR26Ek-OE-7" value="" style="rounded=1;whiteSpace=wrap;html=1;" parent="1" vertex="1">
          <mxGeometry x="340" y="170" width="210" height="280" as="geometry" />
        </mxCell>
        <mxCell id="pcztxO2rEpAHR26Ek-OE-8" value="&lt;font style=&quot;font-size: 16px;&quot;&gt;构建损失函数&lt;/font&gt;" style="rounded=1;whiteSpace=wrap;html=1;" parent="1" vertex="1">
          <mxGeometry x="383" y="260" width="134" height="50" as="geometry" />
        </mxCell>
        <mxCell id="pcztxO2rEpAHR26Ek-OE-9" value="&lt;span style=&quot;font-size: 16px;&quot;&gt;训练模型&lt;/span&gt;" style="rounded=1;whiteSpace=wrap;html=1;" parent="1" vertex="1">
          <mxGeometry x="383" y="330" width="134" height="50" as="geometry" />
        </mxCell>
        <mxCell id="pcztxO2rEpAHR26Ek-OE-11" value="&lt;font style=&quot;font-size: 18px;&quot;&gt;模型训练&lt;/font&gt;" style="text;html=1;align=center;verticalAlign=middle;whiteSpace=wrap;rounded=0;" parent="1" vertex="1">
          <mxGeometry x="380" y="180" width="140" height="40" as="geometry" />
        </mxCell>
        <mxCell id="pcztxO2rEpAHR26Ek-OE-12" value="" style="rounded=1;whiteSpace=wrap;html=1;" parent="1" vertex="1">
          <mxGeometry x="600" y="170" width="210" height="280" as="geometry" />
        </mxCell>
        <mxCell id="pcztxO2rEpAHR26Ek-OE-13" value="&lt;font style=&quot;font-size: 18px;&quot;&gt;异常检测&lt;/font&gt;" style="text;html=1;align=center;verticalAlign=middle;whiteSpace=wrap;rounded=0;" parent="1" vertex="1">
          <mxGeometry x="640" y="180" width="140" height="40" as="geometry" />
        </mxCell>
        <mxCell id="pcztxO2rEpAHR26Ek-OE-14" value="&lt;font style=&quot;font-size: 16px;&quot;&gt;异常标签&lt;/font&gt;" style="rounded=1;whiteSpace=wrap;html=1;" parent="1" vertex="1">
          <mxGeometry x="643" y="285" width="134" height="50" as="geometry" />
        </mxCell>
        <mxCell id="__ya_s2Tggf9Jg9afbsI-5" value="&lt;font style=&quot;font-size: 18px;&quot;&gt;测试&lt;/font&gt;" style="text;html=1;align=center;verticalAlign=middle;whiteSpace=wrap;rounded=0;" vertex="1" parent="1">
          <mxGeometry x="420" y="461" width="60" height="30" as="geometry" />
        </mxCell>
      </root>
    </mxGraphModel>
  </diagram>
  <diagram id="8enKxr2HIYtsmv9ViIG4" name="密度聚类">
    <mxGraphModel dx="1666" dy="701" grid="0" gridSize="10" guides="1" tooltips="1" connect="1" arrows="1" fold="1" page="0" pageScale="1" pageWidth="827" pageHeight="1169" math="0" shadow="0">
      <root>
        <mxCell id="0" />
        <mxCell id="1" parent="0" />
        <mxCell id="AUI57bEPEny5ajrz7blF-1" value="KPI&lt;div&gt;时间序列&lt;/div&gt;" style="rounded=0;whiteSpace=wrap;html=1;" vertex="1" parent="1">
          <mxGeometry x="-262" y="107" width="108" height="110" as="geometry" />
        </mxCell>
      </root>
    </mxGraphModel>
  </diagram>
</mxfile>
